<?xml version="1.0" encoding="utf-8"?>
<!-- Generator: Adobe Illustrator 19.2.0, SVG Export Plug-In . SVG Version: 6.00 Build 0)  -->
<svg version="1.1" id="Calque_1" xmlns="http://www.w3.org/2000/svg" xmlns:xlink="http://www.w3.org/1999/xlink" x="0px" y="0px"
	 width="401.6px" height="112.5px" viewBox="0 0 401.6 112.5" enable-background="new 0 0 401.6 112.5" xml:space="preserve">
<g opacity="0.4">
	<defs>
		<filter id="Adobe_OpacityMaskFilter" filterUnits="userSpaceOnUse" x="0.9" y="6.5" width="396" height="106">
			<feFlood  style="flood-color:white;flood-opacity:1" result="back"/>
			<feBlend  in="SourceGraphic" in2="back" mode="normal"/>
		</filter>
	</defs>
	<mask maskUnits="userSpaceOnUse" x="0.9" y="6.5" width="396" height="106" id="SVGID_1_">
		<g filter="url(#Adobe_OpacityMaskFilter)">
			
				<image overflow="visible" width="1667" height="459" xlink:href="14CE15621921356D.jpg"  transform="matrix(0.24 0 0 0.24 -1.0763 4.4866)">
			</image>
		</g>
	</mask>
	<g mask="url(#SVGID_1_)">
		<path d="M53.2,112.5c0,0,90.8-1.3,153.3-2.6c58.9-1.2,190.4-4.5,190.4-4.5l-0.6-98.9L0.9,8.8l0.4,63
			C1.4,95.4,18.4,112.7,53.2,112.5z"/>
	</g>
</g>
<g>
	<radialGradient id="SVGID_2_" cx="152.1041" cy="-64.2878" r="490.2448" gradientUnits="userSpaceOnUse">
		<stop  offset="0" style="stop-color:#FFE5B5"/>
		<stop  offset="5.435047e-02" style="stop-color:#FFE0A6"/>
		<stop  offset="0.451" style="stop-color:#FDC03A"/>
		<stop  offset="1" style="stop-color:#FAB33B"/>
	</radialGradient>
	<path fill="url(#SVGID_2_)" d="M401.6,106.5c0-0.1-292.7-0.1-292.7,0L109,0h292.7L401.6,106.5z"/>
	<radialGradient id="SVGID_3_" cx="152.1041" cy="-64.2878" r="490.2448" gradientUnits="userSpaceOnUse">
		<stop  offset="0" style="stop-color:#FFE5B5"/>
		<stop  offset="5.435047e-02" style="stop-color:#FFE0A6"/>
		<stop  offset="0.451" style="stop-color:#FDC03A"/>
		<stop  offset="1" style="stop-color:#FAB33B"/>
	</radialGradient>
	<path fill="url(#SVGID_3_)" d="M42.8,106.5h59.8V0H0v63.7C0,87.3,19.1,106.5,42.8,106.5z"/>
</g>
<g>
	<path fill="#004983" d="M157.6,75.6c-0.6,0-1,0.5-1,1v2.8h-4.4v-2.8c0-0.5-0.5-1-1-1c-0.6,0-1,0.5-1,1v7.6c0,0.5,0.5,1,1,1
		c0.6,0,1-0.5,1-1v-3h4.4v3c0,0.5,0.5,1,1,1c0.6,0,1-0.5,1-1v-7.6C158.6,76.1,158.1,75.6,157.6,75.6z"/>
	<path fill="#004983" d="M169.8,75.6c-2.8,0-4.9,2-4.9,4.9c0,2.8,2.1,4.9,4.9,4.9c2.8,0,4.9-2,4.9-4.9
		C174.7,77.6,172.6,75.6,169.8,75.6z M169.8,83.5c-1.7,0-2.8-1.3-2.8-3.1c0-1.8,1.1-3.1,2.8-3.1c1.7,0,2.9,1.3,2.9,3.1
		C172.7,82.2,171.5,83.5,169.8,83.5z"/>
	<path fill="#004983" d="M186.9,75.7h-5.9c-0.5,0-0.9,0.4-0.9,0.9c0,0.5,0.4,0.9,0.9,0.9h2v6.7c0,0.5,0.5,1,1,1c0.6,0,1-0.5,1-1
		v-6.7h2c0.5,0,0.9-0.4,0.9-0.9C187.7,76.1,187.3,75.7,186.9,75.7z"/>
	<path fill="#004983" d="M199.7,77.5c0.5,0,0.9-0.4,0.9-0.9c0-0.5-0.4-0.9-0.9-0.9H195c-0.6,0-1.1,0.5-1.1,1.1V84
		c0,0.6,0.5,1.1,1.1,1.1h4.7c0.5,0,0.9-0.4,0.9-0.9c0-0.5-0.4-0.9-0.9-0.9h-3.9v-2.1h3.8c0.5,0,0.9-0.4,0.9-0.9
		c0-0.5-0.4-0.9-0.9-0.9h-3.8v-2H199.7z"/>
	<path fill="#004983" d="M212.2,83.3H209v-6.7c0-0.5-0.5-1-1-1c-0.6,0-1,0.5-1,1V84c0,0.6,0.5,1.1,1.1,1.1h4.1
		c0.5,0,0.9-0.4,0.9-0.9C213,83.7,212.6,83.3,212.2,83.3z"/>
	<path fill="#004983" d="M235.4,78.7c0-1.7-1.2-3-3.2-3h-3.3c-0.6,0-1.1,0.5-1.1,1.1v7.4c0,0.5,0.5,1,1,1c0.6,0,1-0.5,1-1v-2.4h1.5
		l1.6,2.9c0.2,0.3,0.5,0.5,0.9,0.5c0.6,0,1-0.5,1-1c0-0.2,0-0.3-0.1-0.5l-1.3-2.2C234.3,81.3,235.4,80.4,235.4,78.7z M231.9,80h-2.1
		v-2.5h2.1c0.8,0,1.4,0.5,1.4,1.3C233.3,79.5,232.7,80,231.9,80z"/>
	<path fill="#004983" d="M247.7,77.5c0.5,0,0.9-0.4,0.9-0.9c0-0.5-0.4-0.9-0.9-0.9h-4.7c-0.6,0-1.1,0.5-1.1,1.1V84
		c0,0.6,0.5,1.1,1.1,1.1h4.7c0.5,0,0.9-0.4,0.9-0.9c0-0.5-0.4-0.9-0.9-0.9h-3.9v-2.1h3.8c0.5,0,0.9-0.4,0.9-0.9
		c0-0.5-0.4-0.9-0.9-0.9h-3.8v-2H247.7z"/>
	<path fill="#004983" d="M256.6,78.3c0-0.6,0.5-0.9,1.3-0.9c0.7,0,1.4,0.2,2.1,0.5c0.2,0.1,0.3,0.1,0.5,0.1c0.5,0,1-0.4,1-0.9
		c0-0.2-0.1-0.3-0.2-0.5c-0.5-0.7-2.2-1-3.2-1c-2.2,0-3.6,1.3-3.6,2.9c0,3.5,5.4,2.4,5.4,4.1c0,0.5-0.5,1-1.6,1
		c-0.9,0-1.7-0.3-2.4-0.7c-0.2-0.1-0.4-0.2-0.5-0.2c-0.5,0-0.9,0.4-0.9,0.9c0,0.2,0.1,0.3,0.2,0.5c0.5,0.8,2.2,1.2,3.6,1.2
		c2.5,0,3.8-1.3,3.8-3C262,78.8,256.6,79.8,256.6,78.3z"/>
	<path fill="#004983" d="M274.3,75.7h-5.9c-0.5,0-0.9,0.4-0.9,0.9c0,0.5,0.4,0.9,0.9,0.9h2v6.7c0,0.5,0.5,1,1,1c0.6,0,1-0.5,1-1
		v-6.7h2c0.5,0,0.9-0.4,0.9-0.9C275.1,76.1,274.7,75.7,274.3,75.7z"/>
	<path fill="#004983" d="M285.9,76.7c-0.3-0.7-1-1.1-1.7-1.1c-0.7,0-1.3,0.4-1.5,1.1l-2.7,7.1c-0.1,0.1-0.1,0.3-0.1,0.4
		c0,0.5,0.4,1.1,1.1,1.1c0.4,0,0.8-0.3,1-0.7l0.4-1h4l0.4,1c0.2,0.4,0.5,0.7,1,0.7c0.6,0,1.1-0.5,1.1-1.1c0-0.1,0-0.3-0.1-0.4
		L285.9,76.7z M282.8,81.8l1.5-4l1.5,4H282.8z"/>
	<path fill="#004983" d="M301.9,75.6c-0.6,0-1,0.5-1,1v4.7c0,1.3-0.7,2.2-2.2,2.2c-1.5,0-2.2-0.9-2.2-2.2v-4.7c0-0.5-0.5-1-1-1
		c-0.6,0-1,0.5-1,1v4.7c0,2.3,1.4,3.9,4.2,3.9c2.9,0,4.2-1.6,4.2-3.9v-4.7C302.9,76.1,302.5,75.6,301.9,75.6z"/>
	<path fill="#004983" d="M317.3,78.7c0-1.7-1.2-3-3.2-3h-3.3c-0.6,0-1.1,0.5-1.1,1.1v7.4c0,0.5,0.5,1,1,1c0.6,0,1-0.5,1-1v-2.4h1.5
		l1.6,2.9c0.2,0.3,0.5,0.5,0.9,0.5c0.6,0,1-0.5,1-1c0-0.2,0-0.3-0.1-0.5l-1.3-2.2C316.2,81.3,317.3,80.4,317.3,78.7z M313.8,80h-2.1
		v-2.5h2.1c0.8,0,1.4,0.5,1.4,1.3C315.2,79.5,314.6,80,313.8,80z"/>
	<path fill="#004983" d="M329.2,76.7c-0.3-0.7-1-1.1-1.7-1.1c-0.7,0-1.3,0.4-1.5,1.1l-2.7,7.1c-0.1,0.1-0.1,0.3-0.1,0.4
		c0,0.5,0.4,1.1,1.1,1.1c0.4,0,0.8-0.3,1-0.7l0.4-1h4l0.4,1c0.2,0.4,0.5,0.7,1,0.7c0.6,0,1.1-0.5,1.1-1.1c0-0.1,0-0.3-0.1-0.4
		L329.2,76.7z M326.1,81.8l1.5-4l1.5,4H326.1z"/>
	<path fill="#004983" d="M345.7,75.6c-0.6,0-1,0.5-1,1v5l-4-5.4c-0.3-0.4-0.7-0.5-1.1-0.5c-0.7,0-1.3,0.6-1.3,1.3v7.3
		c0,0.5,0.5,1,1,1c0.6,0,1-0.5,1-1V79l4.2,5.7c0.2,0.3,0.6,0.5,1,0.5c0.7,0,1.2-0.6,1.2-1.2v-7.4C346.7,76.1,346.2,75.6,345.7,75.6z
		"/>
	<path fill="#004983" d="M359.6,75.7h-5.9c-0.5,0-0.9,0.4-0.9,0.9c0,0.5,0.4,0.9,0.9,0.9h2v6.7c0,0.5,0.5,1,1,1c0.6,0,1-0.5,1-1
		v-6.7h2c0.5,0,0.9-0.4,0.9-0.9C360.4,76.1,360.1,75.7,359.6,75.7z"/>
	<path fill="#004983" d="M166.6,74.7c0.2,0,0.3,0,0.4-0.2c0.4-0.3,1.8-1.2,2.7-1.2c0.9,0,2.3,0.9,2.7,1.2c0.1,0.1,0.3,0.1,0.4,0.1
		c0.2,0,0.5-0.1,0.6-0.3c0.2-0.3,0.2-0.8-0.1-1c-0.2-0.2-2-1.5-3.6-1.5c0,0,0,0,0,0l0,0l0,0c0,0,0,0,0,0c-1.6,0-3.4,1.4-3.6,1.5
		c-0.3,0.2-0.4,0.7-0.1,1C166.2,74.6,166.4,74.7,166.6,74.7z"/>
</g>
<g>
	<path fill="#004983" d="M380.4,81.4H369c-0.6,0-1-0.4-1-1s0.4-1,1-1h11.3c0.6,0,1,0.4,1,1S380.9,81.4,380.4,81.4z"/>
</g>
<g>
	<path fill="#004983" d="M141.5,81.4h-11.3c-0.6,0-1-0.4-1-1s0.4-1,1-1h11.3c0.6,0,1,0.4,1,1S142.1,81.4,141.5,81.4z"/>
</g>
<g>
	<path fill="#004983" d="M310.8,31.8c-2.2,0-3.9,1.6-3.9,3.7v25.7c0,2.1,1.6,3.7,3.7,3.7c2.1,0,3.8-1.7,3.8-3.7V35.5
		C314.5,33.5,312.8,31.8,310.8,31.8z"/>
	<path fill="#004983" d="M146.4,31.4c-3.8,0-7.4,1.7-9.9,4.7V23.3c0-2-1.7-3.7-3.7-3.7c-2.2,0-3.9,1.6-3.9,3.7v37.9
		c0,2.1,1.6,3.7,3.7,3.7c2.1,0,3.8-1.7,3.8-3.7v-0.5c2.5,3,6.1,4.7,9.9,4.7c8.7,0,14.4-6.6,14.4-16.9
		C160.8,38.2,155,31.4,146.4,31.4z M144.3,58.6c-2.9,0-6.3-1.7-7.8-4V42.3c1.5-2.3,4.9-4.1,7.8-4.1c5.2,0,8.7,4.1,8.7,10.2
		C153,54.5,149.5,58.6,144.3,58.6z"/>
	<path fill="#004983" d="M193.5,31.7c-2.1,0-3.8,1.7-3.8,3.7V36c-2.5-3-6.1-4.7-9.9-4.7c-8.7,0-14.4,6.6-14.4,16.9
		c0,10.2,5.8,17,14.4,17c3.8,0,7.4-1.7,9.9-4.7v1c0,2,1.7,3.7,3.7,3.7c2.2,0,3.9-1.6,3.9-3.7V35.5C197.3,33.4,195.6,31.7,193.5,31.7
		z M189.7,54.4c-1.5,2.3-4.9,4.1-7.8,4.1c-5.2,0-8.7-4.1-8.7-10.2c0-6.1,3.5-10.2,8.7-10.2c2.9,0,6.3,1.7,7.8,4V54.4z"/>
	<path fill="#004983" d="M259.6,31.7c-2.1,0-3.8,1.7-3.8,3.7V36c-2.5-3-6.1-4.7-9.9-4.7c-8.7,0-14.4,6.6-14.4,16.9
		c0,10.2,5.8,17,14.4,17c3.8,0,7.4-1.7,9.9-4.7v1c0,2,1.7,3.7,3.7,3.7c2.2,0,3.9-1.6,3.9-3.7V35.5C263.3,33.4,261.7,31.7,259.6,31.7
		z M255.8,54.4c-1.5,2.3-4.9,4.1-7.8,4.1c-5.2,0-8.7-4.1-8.7-10.2c0-6.1,3.5-10.2,8.7-10.2c2.9,0,6.3,1.7,7.8,4V54.4z"/>
	<path fill="#004983" d="M208,19.6c-2.2,0-3.9,1.6-3.9,3.7v37.9c0,2.1,1.6,3.7,3.7,3.7c2.1,0,3.8-1.7,3.8-3.7V23.3
		C211.7,21.3,210,19.6,208,19.6z"/>
	<path fill="#004983" d="M222.4,19.6c-2.2,0-3.9,1.6-3.9,3.7v37.9c0,2.1,1.6,3.7,3.7,3.7c2.1,0,3.8-1.7,3.8-3.7V23.3
		C226.1,21.3,224.4,19.6,222.4,19.6z"/>
	<path fill="#004983" d="M296.7,19.6c-2.2,0-3.9,1.6-3.9,3.7v12.7c-2.6-3-6.2-4.7-10-4.7c-8.6,0-14.4,6.8-14.4,17
		c0,10.1,5.8,16.9,14.4,16.9c3.9,0,7.4-1.7,10-4.7v0.5c0,2.1,1.6,3.7,3.7,3.7c2.1,0,3.8-1.7,3.8-3.7V23.4
		C300.4,21.4,298.7,19.6,296.7,19.6z M292.9,54.6c-1.6,2.3-4.9,4-7.9,4c-5.2,0-8.7-4.1-8.7-10.2c0-6.1,3.5-10.2,8.7-10.2
		c3.1,0,6.3,1.7,7.9,4V54.6z"/>
	<path fill="#004983" d="M338.9,31.4c-4.8,0-8.7,2.4-11,4.7v-0.7c0-2-1.7-3.7-3.7-3.7c-2.2,0-3.9,1.6-3.9,3.7v25.7
		c0,2.1,1.6,3.7,3.7,3.7c2.1,0,3.8-1.7,3.8-3.7v-19c1.4-2,4.4-4,7.8-4c4.2,0,6.1,2,6.1,6.3v16.8c0,2.1,1.6,3.7,3.7,3.7
		c2.1,0,3.8-1.7,3.8-3.7V41.9C349.4,35.1,345.7,31.4,338.9,31.4z"/>
	<path fill="#004983" d="M369,44.5c-3.5-0.8-6.5-1.4-6.5-3.5c0-2.1,2.3-3.6,5.6-3.6c2.7,0,5.4,0.8,7.5,2.2c0.5,0.3,1.1,0.4,1.6,0.4
		c1.7,0,3.1-1.3,3.1-3c0-0.7-0.2-1.2-0.7-1.7c-2.3-2.7-7.4-3.9-11.5-3.9c-7.6,0-12.9,4.1-12.9,9.9c0,7.4,6.8,8.9,12.2,10.1
		c3.8,0.8,7,1.5,7,3.9c0,2.5-2.2,4-5.9,4c-2.8,0-6-1-8.6-2.8c-0.6-0.4-1.3-0.5-1.7-0.5c-1.8,0-3.3,1.5-3.3,3.2
		c0,0.7,0.2,1.3,0.7,1.9c2.6,2.9,8.4,4.2,12.7,4.2c8.2,0,13.5-4,13.5-10.3C381.6,47.2,374.6,45.7,369,44.5z"/>
</g>
<g>
	<rect x="102" y="0.1" fill="#C54F2F" width="7.4" height="15.2"/>
	<rect x="102" y="15.3" fill="#E66530" width="7.4" height="15.2"/>
	<rect x="102" y="30.5" fill="#F28235" width="7.4" height="15.2"/>
	<rect x="102" y="45.7" fill="#F6A038" width="7.4" height="15.2"/>
	<rect x="102" y="60.8" fill="#F2C53E" width="7.4" height="15.2"/>
	<rect x="102" y="76" fill="#F3EB7D" width="7.4" height="15.2"/>
	<rect x="102" y="91.2" fill="#FAF3B3" width="7.4" height="15.2"/>
</g>
<g>
	<g>
		<radialGradient id="SVGID_4_" cx="54.1499" cy="26.6109" r="39.5853" gradientUnits="userSpaceOnUse">
			<stop  offset="0" style="stop-color:#EB443D"/>
			<stop  offset="0.7926" style="stop-color:#B31920"/>
		</radialGradient>
		<path fill="url(#SVGID_4_)" d="M55.2,36.5c-2.6,0-5.6,1.5-7,3.6V51c1.3,2,4.3,3.4,7,3.4c4.7,0,7.8-3.6,7.8-8.9
			C63.1,40.2,60,36.5,55.2,36.5z"/>
		<radialGradient id="SVGID_5_" cx="54.1499" cy="26.6109" r="39.5853" gradientUnits="userSpaceOnUse">
			<stop  offset="0" style="stop-color:#EB443D"/>
			<stop  offset="0.7926" style="stop-color:#B31920"/>
		</radialGradient>
		<path fill="url(#SVGID_5_)" d="M53.8,11.1c-15.2-0.1-27.6,12.3-27.6,27.5c0,21.7,21.4,40.6,26.5,44.3c0.6,0.4,1.4,0.4,2,0
			c4.6-3.7,25.6-21.6,26.6-42.7C81.9,24.5,69.6,11.2,53.8,11.1z M57.8,61.7c-3.7,0-7.1-1.7-9.5-4.7v0.3c0,2.2-1.8,4-4.1,4
			c-2.2,0-4-1.8-4-4V21.9c0-2.2,1.8-4,4.1-4c2.2,0,4,1.8,4,4v12.1c2.4-3.1,5.9-4.7,9.5-4.7c7.8,0,13.7,6.1,13.7,16.2
			C71.4,55.8,65.6,61.7,57.8,61.7z"/>
	</g>
	<linearGradient id="SVGID_6_" gradientUnits="userSpaceOnUse" x1="70.7845" y1="108.6341" x2="42.6814" y2="80.5309">
		<stop  offset="0" style="stop-color:#CA7F2F"/>
		<stop  offset="0.9243" style="stop-color:#E09B35"/>
	</linearGradient>
	<ellipse opacity="0.6" fill="url(#SVGID_6_)" cx="53.9" cy="91.7" rx="24.3" ry="2.3"/>
	<g>
		<defs>
			<filter id="Adobe_OpacityMaskFilter_1_" filterUnits="userSpaceOnUse" x="28.1" y="13.6" width="51.2" height="67.1">
				<feFlood  style="flood-color:white;flood-opacity:1" result="back"/>
				<feBlend  in="SourceGraphic" in2="back" mode="normal"/>
			</filter>
		</defs>
		<mask maskUnits="userSpaceOnUse" x="28.1" y="13.6" width="51.2" height="67.1" id="SVGID_7_">
			<g filter="url(#Adobe_OpacityMaskFilter_1_)">
				
					<image overflow="visible" width="231" height="297" xlink:href="14CE15621921356F.jpg"  transform="matrix(0.24 0 0 0.24 26.0641 11.6394)">
				</image>
			</g>
		</mask>
		<g mask="url(#SVGID_7_)">
			<radialGradient id="SVGID_8_" cx="41.3482" cy="16.3159" r="53.6974" gradientUnits="userSpaceOnUse">
				<stop  offset="0.1812" style="stop-color:#F1846D"/>
				<stop  offset="0.7926" style="stop-color:#B31920"/>
			</radialGradient>
			<path fill="url(#SVGID_8_)" d="M53.8,13.6c-14.2,0-25.7,11.4-25.7,25.6C28.1,59.4,48,77,52.7,80.5c0.5,0.4,1.3,0.4,1.8,0
				c4.3-3.4,23.8-20.1,24.7-39.7C80,26,68.5,13.7,53.8,13.6z"/>
		</g>
	</g>
	<path fill="#FFC930" d="M57.8,29.3c-3.6,0-7.1,1.6-9.5,4.7V21.9c0-2.2-1.8-4-4-4c-2.4,0-4.1,1.8-4.1,4v35.4c0,2.2,1.8,4,4,4
		c2.3,0,4.1-1.8,4.1-4V57c2.4,3.1,5.8,4.7,9.5,4.7c7.8,0,13.7-5.9,13.7-16.1C71.4,35.5,65.6,29.3,57.8,29.3z M55.2,54.5
		c-2.6,0-5.6-1.5-7-3.4V40.1c1.3-2,4.3-3.6,7-3.6c4.7,0,7.8,3.6,7.8,9C63.1,50.9,60,54.5,55.2,54.5z"/>
</g>
<circle fill="#D53D32" cx="310.8" cy="24.1" r="4.4"/>
</svg>
